<?xml version="1.0" standalone="no"?>
<!DOCTYPE svg PUBLIC "-//W3C//DTD SVG 20010904//EN"
 "http://www.w3.org/TR/2001/REC-SVG-20010904/DTD/svg10.dtd">
<svg version="1.0" xmlns="http://www.w3.org/2000/svg"
 width="160.000000pt" height="160.000000pt" viewBox="0 0 160.000000 160.000000"
 preserveAspectRatio="xMidYMid meet">
<metadata>
Created by potrace 1.11, written by Peter Selinger 2001-2013
</metadata>
<g transform="translate(0.000000,160.000000) scale(0.100000,-0.100000)"
fill="#000000" stroke="none">
<path d="M357 1546 c-22 -23 -174 -336 -182 -376 -4 -19 -20 -66 -36 -103 -49
-117 -63 -184 -62 -307 1 -111 9 -159 44 -251 88 -228 301 -414 519 -453 14
-3 25 -5 25 -6 0 -3 73 -10 125 -12 86 -4 253 30 305 61 6 3 13 6 16 6 14 0
147 91 182 124 150 140 237 343 231 542 -3 120 -8 151 -40 241 -51 140 -153
271 -272 350 -144 96 -251 127 -420 124 -65 -2 -126 -5 -137 -8 -11 -3 -40
-11 -65 -18 -25 -7 -61 -20 -81 -31 -42 -21 -43 -21 -82 57 -33 65 -50 80 -70
60z"/>
</g>
</svg>
